<svg width="48" height="48" viewBox="0 0 48 48" fill="none" xmlns="http://www.w3.org/2000/svg">
<path d="M36 42C34.4087 42 32.8826 41.3679 31.7574 40.2426C30.6321 39.1174 30 37.5913 30 36V34H42V36C42 37.5913 41.3679 39.1174 40.2426 40.2426C39.1174 41.3679 37.5913 42 36 42ZM12 42C13.5913 42 15.1174 41.3679 16.2426 40.2426C17.3679 39.1174 18 37.5913 18 36V34H6V36C6 37.5913 6.63214 39.1174 7.75736 40.2426C8.88258 41.3679 10.4087 42 12 42Z" fill="#EDFCFD"/>
<path d="M24 6V10M42 12H26M22 12H6M42 34L36 12L30 34M18 34L12 12L6 34" stroke="#0BCAD4" stroke-width="4" stroke-linecap="round" stroke-linejoin="round"/>
<path d="M24 14C25.1046 14 26 13.1046 26 12C26 10.8954 25.1046 10 24 10C22.8954 10 22 10.8954 22 12C22 13.1046 22.8954 14 24 14Z" stroke="#0BCAD4" stroke-width="4" stroke-linecap="round" stroke-linejoin="round"/>
<path d="M36 42C34.4087 42 32.8826 41.3679 31.7574 40.2426C30.6321 39.1174 30 37.5913 30 36V34H42V36C42 37.5913 41.3679 39.1174 40.2426 40.2426C39.1174 41.3679 37.5913 42 36 42ZM12 42C13.5913 42 15.1174 41.3679 16.2426 40.2426C17.3679 39.1174 18 37.5913 18 36V34H6V36C6 37.5913 6.63214 39.1174 7.75736 40.2426C8.88258 41.3679 10.4087 42 12 42Z" stroke="#0BCAD4" stroke-width="4" stroke-linecap="round" stroke-linejoin="round"/>
</svg>
