<svg width="21" height="20" viewBox="0 0 21 20" fill="none" xmlns="http://www.w3.org/2000/svg">
<path fill-rule="evenodd" clip-rule="evenodd" d="M20.5 10C20.5 15.52 16.02 20 10.5 20C4.98 20 0.5 15.52 0.5 10C0.5 4.48 4.98 0 10.5 0C16.02 0 20.5 4.48 20.5 10ZM7.5 12.25C8.19 12.25 8.75 11.69 8.75 11C8.75 10.31 8.19 9.75 7.5 9.75C6.81 9.75 6.25 10.31 6.25 11C6.25 11.69 6.81 12.25 7.5 12.25ZM12.25 11C12.25 10.31 12.81 9.75 13.5 9.75C14.19 9.75 14.75 10.31 14.75 11C14.75 11.69 14.19 12.25 13.5 12.25C12.81 12.25 12.25 11.69 12.25 11ZM16 6C13.1 6 10.56 4.44 9.16 2.12C9.59 2.05 10.04 2 10.5 2C13.4 2 15.94 3.56 17.34 5.88C16.91 5.95 16.46 6 16 6ZM2.92 7.46997C4.63 6.49997 5.95 4.91997 6.58 3.02997C4.87 3.99997 3.55 5.57997 2.92 7.46997ZM18.17 7.76C18.38 8.47 18.5 9.22 18.5 10C18.5 14.41 14.91 18 10.5 18C6.09 18 2.5 14.41 2.5 10C2.5 9.98294 2.50116 9.96589 2.5023 9.94923C2.50449 9.91705 2.50659 9.88635 2.5 9.86C5.1 8.88 7.19 6.87 8.24 4.31C10.08 6.56 12.87 8 16 8C16.75 8 17.47 7.91 18.17 7.76Z" fill="#0BCAD4"/>
</svg>
