<svg width="21" height="20" viewBox="0 0 21 20" fill="none" xmlns="http://www.w3.org/2000/svg">
<path fill-rule="evenodd" clip-rule="evenodd" d="M19.7667 0.0333333L19.9444 0C20.2556 0 20.5 0.244444 20.5 0.555556V17.3556C20.5 17.6111 20.3333 17.8111 20.1 17.8889L13.8333 20L7.16667 17.6667L1.23333 19.9667L1.05556 20C0.744444 20 0.5 19.7556 0.5 19.4444V2.64444C0.5 2.38889 0.666667 2.18889 0.9 2.11111L7.16667 0L13.8333 2.33333L19.7667 0.0333333ZM12.7222 4.3L8.27777 2.74445V15.7L12.7222 17.2556V4.3ZM2.72223 3.84445L6.05556 2.72223V15.7222L2.72223 17.0111V3.84445ZM14.9445 17.2778L18.2778 16.1556V3L14.9445 4.28889V17.2778Z" fill="#7D8797"/>
</svg>
