<svg width="24" height="25" viewBox="0 0 24 25" fill="none" xmlns="http://www.w3.org/2000/svg">
<path fill-rule="evenodd" clip-rule="evenodd" d="M12 2.5C6.48 2.5 2 6.98 2 12.5C2 18.02 6.48 22.5 12 22.5C17.52 22.5 22 18.02 22 12.5C22 6.98 17.52 2.5 12 2.5ZM7.07 18.78C7.5 17.88 10.12 17 12 17C13.88 17 16.51 17.88 16.93 18.78C15.57 19.86 13.86 20.5 12 20.5C10.14 20.5 8.43 19.86 7.07 18.78ZM12 15C13.46 15 16.93 15.59 18.36 17.33C19.38 15.99 20 14.32 20 12.5C20 8.09 16.41 4.5 12 4.5C7.59 4.5 4 8.09 4 12.5C4 14.32 4.62 15.99 5.64 17.33C7.07 15.59 10.54 15 12 15ZM12 6.5C10.06 6.5 8.5 8.06 8.5 10C8.5 11.94 10.06 13.5 12 13.5C13.94 13.5 15.5 11.94 15.5 10C15.5 8.06 13.94 6.5 12 6.5ZM10.5 10C10.5 10.83 11.17 11.5 12 11.5C12.83 11.5 13.5 10.83 13.5 10C13.5 9.17 12.83 8.5 12 8.5C11.17 8.5 10.5 9.17 10.5 10Z" fill="#0BCAD4"/>
</svg>
