<svg width="48" height="48" viewBox="0 0 48 48" fill="none" xmlns="http://www.w3.org/2000/svg">
<path d="M34 10H14C14 12.1217 13.1571 14.1566 11.6569 15.6569C10.1566 17.1571 8.12173 18 6 18V30C8.12173 30 10.1566 30.8429 11.6569 32.3431C13.1571 33.8434 14 35.8783 14 38H34C34 35.8783 34.8429 33.8434 36.3431 32.3431C37.8434 30.8429 39.8783 30 42 30V18C39.8783 18 37.8434 17.1571 36.3431 15.6569C34.8429 14.1566 34 12.1217 34 10V10ZM24 28C23.2089 28 22.4355 27.7654 21.7777 27.3259C21.1199 26.8864 20.6072 26.2616 20.3045 25.5307C20.0017 24.7998 19.9225 23.9956 20.0769 23.2196C20.2312 22.4437 20.6122 21.731 21.1716 21.1716C21.731 20.6122 22.4437 20.2312 23.2196 20.0769C23.9956 19.9225 24.7998 20.0017 25.5307 20.3045C26.2616 20.6072 26.8864 21.1199 27.3259 21.7777C27.7654 22.4355 28 23.2089 28 24C28 25.0609 27.5786 26.0783 26.8284 26.8284C26.0783 27.5786 25.0609 28 24 28Z" fill="#EDFCFD"/>
<path d="M42 12C42 11.4696 41.7893 10.9609 41.4142 10.5858C41.0391 10.2107 40.5304 10 40 10H34C34 12.1217 34.8429 14.1566 36.3431 15.6569C37.8434 17.1571 39.8783 18 42 18V12ZM6 18C8.12173 18 10.1566 17.1571 11.6569 15.6569C13.1571 14.1566 14 12.1217 14 10H8C7.46957 10 6.96086 10.2107 6.58579 10.5858C6.21071 10.9609 6 11.4696 6 12V18ZM42 30C39.8783 30 37.8434 30.8429 36.3431 32.3431C34.8429 33.8434 34 35.8783 34 38H40C40.5304 38 41.0391 37.7893 41.4142 37.4142C41.7893 37.0391 42 36.5304 42 36V30ZM6 36C6 36.5304 6.21071 37.0391 6.58579 37.4142C6.96086 37.7893 7.46957 38 8 38H14C14 35.8783 13.1571 33.8434 11.6569 32.3431C10.1566 30.8429 8.12173 30 6 30V30V36ZM24 20C23.2089 20 22.4355 20.2346 21.7777 20.6741C21.1199 21.1136 20.6072 21.7384 20.3045 22.4693C20.0017 23.2002 19.9225 24.0044 20.0769 24.7804C20.2312 25.5563 20.6122 26.269 21.1716 26.8284C21.731 27.3878 22.4437 27.7688 23.2196 27.9231C23.9956 28.0775 24.7998 27.9983 25.5307 27.6955C26.2616 27.3928 26.8864 26.8801 27.3259 26.2223C27.7654 25.5645 28 24.7911 28 24C28 22.9391 27.5786 21.9217 26.8284 21.1716C26.0783 20.4214 25.0609 20 24 20ZM40 38H8C7.46957 38 6.96086 37.7893 6.58579 37.4142C6.21071 37.0391 6 36.5304 6 36V12C6 11.4696 6.21071 10.9609 6.58579 10.5858C6.96086 10.2107 7.46957 10 8 10H40C40.5304 10 41.0391 10.2107 41.4142 10.5858C41.7893 10.9609 42 11.4696 42 12V36C42 36.5304 41.7893 37.0391 41.4142 37.4142C41.0391 37.7893 40.5304 38 40 38Z" stroke="#0BCAD4" stroke-width="4" stroke-linecap="round" stroke-linejoin="round"/>
</svg>
